<?xml version="1.0" encoding="utf-8"?>
<!-- Generator: Adobe Illustrator 19.2.1, SVG Export Plug-In . SVG Version: 6.00 Build 0)  -->
<svg version="1.1" id="Layer_1" xmlns="http://www.w3.org/2000/svg" xmlns:xlink="http://www.w3.org/1999/xlink" x="0px" y="0px"
	 viewBox="0 0 595.3 505.7" style="enable-background:new 0 0 595.3 505.7;" xml:space="preserve">
<style type="text/css">
	.st0{fill:#FFFFFF;}
</style>
<g>
	<path class="st0" d="M130.6,454.3h-17.8v15.5h20.5v2.7h-23.7v-38h23.5v2.7h-20.3v14.3h17.8V454.3z"/>
	<path class="st0" d="M147.1,455.8l7.6-11.5h3.7l-9.6,13.9l10,14.4h-3.7l-8-12l-8,12h-3.7l10-14.4l-9.6-13.9h3.7L147.1,455.8z"/>
	<path class="st0" d="M168,437.1v7.2h5.9v2.6H168v18.8c0,1,0.1,1.8,0.3,2.4c0.2,0.6,0.5,1.1,0.8,1.4c0.3,0.3,0.7,0.6,1.2,0.7
		c0.4,0.1,0.9,0.2,1.4,0.2c0.5,0,0.9,0,1.4-0.1c0.4-0.1,0.8-0.1,1.2-0.2l0.1,2.6c-0.4,0.1-0.9,0.2-1.5,0.3c-0.6,0.1-1.2,0.1-1.8,0.1
		c-0.9,0-1.7-0.1-2.5-0.4s-1.4-0.6-1.9-1.2s-1-1.3-1.3-2.3c-0.3-0.9-0.5-2.1-0.5-3.5v-18.8h-5.2v-2.6h5.2v-7.2H168z"/>
	<path class="st0" d="M190.2,473.1c-1.8,0-3.5-0.3-5.1-1c-1.5-0.7-2.9-1.6-4-2.9s-2-2.7-2.6-4.4c-0.6-1.7-0.9-3.5-0.9-5.6v-1.1
		c0-2.2,0.3-4.1,1-5.9c0.7-1.8,1.5-3.3,2.7-4.5c1.1-1.2,2.4-2.2,3.9-2.9c1.5-0.7,3-1,4.6-1c1.8,0,3.4,0.3,4.8,1
		c1.4,0.6,2.6,1.5,3.5,2.7c0.9,1.2,1.7,2.5,2.2,4.1c0.5,1.6,0.7,3.3,0.7,5.2v1.9h-20.2v0.6c0,1.5,0.2,3,0.7,4.4s1.1,2.6,2,3.6
		c0.9,1,1.9,1.8,3.1,2.4c1.2,0.6,2.5,0.9,3.9,0.9c1.7,0,3.1-0.3,4.4-0.9s2.4-1.6,3.5-2.9l2,1.5c-0.5,0.7-1,1.3-1.6,1.9
		c-0.6,0.6-1.3,1.1-2.2,1.6c-0.8,0.5-1.7,0.8-2.8,1.1C192.6,473,191.5,473.1,190.2,473.1z M189.6,446.4c-1.2,0-2.3,0.2-3.3,0.7
		c-1,0.5-1.9,1.1-2.7,1.9c-0.8,0.8-1.4,1.8-1.9,3c-0.5,1.2-0.8,2.5-1,3.9h17v-0.3c0-1.2-0.2-2.3-0.6-3.4c-0.3-1.1-0.9-2.1-1.5-2.9
		c-0.7-0.9-1.5-1.5-2.5-2.1C192.1,446.7,191,446.4,189.6,446.4z"/>
	<path class="st0" d="M208.8,444.3l0.1,4.8c0.5-0.8,1-1.5,1.7-2.2c0.6-0.7,1.3-1.2,2.1-1.7c0.8-0.5,1.6-0.8,2.5-1.1
		c0.9-0.3,1.9-0.4,2.9-0.4c1.4,0,2.7,0.2,3.8,0.6s2.1,1,2.8,1.8c0.8,0.8,1.4,1.9,1.8,3.2c0.4,1.3,0.6,2.9,0.6,4.8v18.4H224v-18.4
		c0-1.5-0.2-2.7-0.5-3.7c-0.3-1-0.8-1.8-1.3-2.4s-1.3-1-2.1-1.3c-0.8-0.3-1.7-0.4-2.8-0.4c-1.1,0-2.1,0.2-3,0.6
		c-0.9,0.4-1.7,0.9-2.4,1.5c-0.7,0.6-1.3,1.3-1.8,2.2c-0.5,0.8-0.9,1.6-1.2,2.5v19.4h-3.1v-28.3H208.8z"/>
	<path class="st0" d="M232.9,458.2c0-2.2,0.3-4.2,0.8-5.9c0.5-1.8,1.2-3.3,2.2-4.5s2.1-2.2,3.4-2.9c1.3-0.7,2.9-1,4.6-1
		c2,0,3.7,0.4,5.2,1.2c1.4,0.8,2.6,1.9,3.6,3.3v-15.9h3.1v40.1h-2.9l-0.1-3.8c-0.9,1.3-2.1,2.4-3.6,3.1c-1.5,0.8-3.2,1.1-5.2,1.1
		c-1.7,0-3.2-0.4-4.5-1.1c-1.3-0.7-2.5-1.7-3.4-3s-1.7-2.8-2.2-4.5c-0.5-1.8-0.8-3.7-0.8-5.8V458.2z M236.1,458.7
		c0,1.7,0.2,3.2,0.5,4.6c0.3,1.4,0.8,2.7,1.5,3.7c0.7,1,1.5,1.9,2.6,2.5c1,0.6,2.3,0.9,3.7,0.9c1.1,0,2-0.1,2.9-0.4
		c0.9-0.3,1.6-0.6,2.3-1.1c0.7-0.5,1.3-1,1.8-1.6c0.5-0.6,0.9-1.3,1.3-2V452c-0.3-0.7-0.7-1.4-1.1-2.1c-0.5-0.7-1-1.2-1.7-1.8
		s-1.4-0.9-2.3-1.2s-1.9-0.5-3-0.5c-1.4,0-2.7,0.3-3.7,0.9c-1,0.6-1.9,1.4-2.6,2.5c-0.7,1-1.2,2.3-1.5,3.7s-0.5,3-0.5,4.6V458.7z"/>
	<path class="st0" d="M273.8,473.1c-1.8,0-3.5-0.3-5.1-1c-1.5-0.7-2.9-1.6-4-2.9s-2-2.7-2.6-4.4c-0.6-1.7-0.9-3.5-0.9-5.6v-1.1
		c0-2.2,0.3-4.1,1-5.9c0.7-1.8,1.5-3.3,2.7-4.5c1.1-1.2,2.4-2.2,3.9-2.9c1.5-0.7,3-1,4.6-1c1.8,0,3.4,0.3,4.8,1
		c1.4,0.6,2.6,1.5,3.5,2.7c0.9,1.2,1.7,2.5,2.2,4.1c0.5,1.6,0.7,3.3,0.7,5.2v1.9h-20.2v0.6c0,1.5,0.2,3,0.7,4.4s1.1,2.6,2,3.6
		c0.9,1,1.9,1.8,3.1,2.4c1.2,0.6,2.5,0.9,3.9,0.9c1.7,0,3.1-0.3,4.4-0.9s2.4-1.6,3.5-2.9l2,1.5c-0.5,0.7-1,1.3-1.6,1.9
		c-0.6,0.6-1.3,1.1-2.2,1.6c-0.8,0.5-1.7,0.8-2.8,1.1C276.2,473,275,473.1,273.8,473.1z M273.2,446.4c-1.2,0-2.3,0.2-3.3,0.7
		c-1,0.5-1.9,1.1-2.7,1.9c-0.8,0.8-1.4,1.8-1.9,3c-0.5,1.2-0.8,2.5-1,3.9h17v-0.3c0-1.2-0.2-2.3-0.6-3.4c-0.3-1.1-0.9-2.1-1.5-2.9
		c-0.7-0.9-1.5-1.5-2.5-2.1C275.7,446.7,274.5,446.4,273.2,446.4z"/>
	<path class="st0" d="M288.1,458.2c0-2.2,0.3-4.2,0.8-5.9c0.5-1.8,1.2-3.3,2.2-4.5s2.1-2.2,3.4-2.9c1.3-0.7,2.9-1,4.6-1
		c2,0,3.7,0.4,5.2,1.2c1.4,0.8,2.6,1.9,3.6,3.3v-15.9h3.1v40.1H308l-0.1-3.8c-0.9,1.3-2.1,2.4-3.6,3.1c-1.5,0.8-3.2,1.1-5.2,1.1
		c-1.7,0-3.2-0.4-4.5-1.1c-1.3-0.7-2.5-1.7-3.4-3s-1.7-2.8-2.2-4.5c-0.5-1.8-0.8-3.7-0.8-5.8V458.2z M291.3,458.7
		c0,1.7,0.2,3.2,0.5,4.6c0.3,1.4,0.8,2.7,1.5,3.7c0.7,1,1.5,1.9,2.6,2.5c1,0.6,2.3,0.9,3.7,0.9c1.1,0,2-0.1,2.9-0.4
		c0.9-0.3,1.6-0.6,2.3-1.1c0.7-0.5,1.3-1,1.8-1.6c0.5-0.6,0.9-1.3,1.3-2V452c-0.3-0.7-0.7-1.4-1.1-2.1c-0.5-0.7-1-1.2-1.7-1.8
		s-1.4-0.9-2.3-1.2s-1.9-0.5-3-0.5c-1.4,0-2.7,0.3-3.7,0.9c-1,0.6-1.9,1.4-2.6,2.5c-0.7,1-1.2,2.3-1.5,3.7s-0.5,3-0.5,4.6V458.7z"/>
	<path class="st0" d="M330.7,472.6v-38H342c1.9,0,3.7,0.2,5.2,0.6c1.5,0.4,2.8,1,3.9,1.8c1.1,0.8,1.9,1.8,2.5,3.1
		c0.6,1.3,0.9,2.7,0.9,4.5c0,1-0.1,1.9-0.4,2.8c-0.3,0.9-0.7,1.7-1.2,2.4s-1.2,1.3-1.9,1.9c-0.7,0.5-1.6,1-2.5,1.3
		c1.1,0.2,2.1,0.6,3,1.2c0.9,0.6,1.7,1.3,2.3,2.1c0.6,0.8,1.1,1.7,1.5,2.7c0.3,1,0.5,2,0.5,3.1c0,1.7-0.3,3.3-0.9,4.6
		c-0.6,1.3-1.4,2.5-2.5,3.4c-1.1,0.9-2.4,1.6-3.9,2.1c-1.5,0.5-3.2,0.7-5,0.7H330.7z M333.9,451.6h8.8c2.7-0.1,4.8-0.7,6.2-1.9
		c1.5-1.2,2.2-3,2.2-5.3c0-2.4-0.8-4.2-2.3-5.4c-1.5-1.2-3.8-1.7-6.9-1.7h-8V451.6z M333.9,454.3v15.6h9.6c1.4,0,2.6-0.2,3.7-0.5
		c1.1-0.4,2-0.9,2.8-1.6c0.8-0.7,1.4-1.5,1.8-2.5c0.4-1,0.6-2.1,0.6-3.3c0-1.1-0.2-2.1-0.5-3s-0.9-1.7-1.6-2.4
		c-0.7-0.7-1.6-1.2-2.7-1.6c-1.1-0.4-2.4-0.6-3.9-0.6H333.9z"/>
	<path class="st0" d="M374.8,447c-0.7-0.1-1.4-0.2-2.1-0.2c-1.1,0-2,0.2-2.9,0.5c-0.9,0.3-1.6,0.8-2.3,1.3c-0.7,0.6-1.2,1.2-1.6,2
		c-0.4,0.8-0.8,1.6-1.1,2.6v19.4h-3.1v-28.3h3.1l0.1,4.5c0.8-1.6,1.8-2.8,3.1-3.7c1.3-0.9,2.9-1.3,4.8-1.3c0.4,0,0.8,0,1.2,0.1
		c0.4,0.1,0.7,0.1,0.9,0.2L374.8,447z"/>
	<path class="st0" d="M395.4,472.6c-0.2-0.5-0.3-1.1-0.4-1.8c-0.1-0.7-0.2-1.4-0.2-2.2c-0.5,0.6-1,1.2-1.7,1.7
		c-0.6,0.5-1.4,1-2.2,1.4c-0.8,0.4-1.7,0.7-2.6,1c-1,0.2-2,0.4-3.1,0.4c-1.4,0-2.6-0.2-3.7-0.6s-2.1-1-2.9-1.7
		c-0.8-0.7-1.4-1.6-1.8-2.5c-0.4-1-0.7-2-0.7-3.2c0-1.4,0.3-2.6,0.9-3.7c0.6-1.1,1.4-2,2.6-2.8c1.1-0.8,2.5-1.4,4.1-1.8
		c1.6-0.4,3.4-0.6,5.4-0.6h5.8v-3.2c0-2-0.6-3.6-1.9-4.8c-1.2-1.2-3.1-1.7-5.4-1.7c-1.1,0-2.1,0.1-3,0.4s-1.7,0.7-2.4,1.2
		c-0.7,0.5-1.2,1.1-1.6,1.8c-0.4,0.7-0.6,1.4-0.6,2.2l-3.1,0c0-1.1,0.3-2.1,0.8-3.1c0.5-1,1.3-1.9,2.2-2.7c0.9-0.8,2.1-1.4,3.4-1.9
		c1.3-0.5,2.8-0.7,4.4-0.7c1.5,0,2.9,0.2,4.1,0.6c1.3,0.4,2.3,1,3.3,1.7c0.9,0.8,1.6,1.7,2.1,2.9c0.5,1.1,0.8,2.5,0.8,4v13.7
		c0,0.5,0,1,0.1,1.5s0.1,1,0.2,1.5c0.1,0.5,0.2,1,0.3,1.4c0.1,0.4,0.2,0.8,0.4,1.2v0.3H395.4z M385.6,470.3c1.1,0,2.2-0.1,3.1-0.4
		c1-0.3,1.8-0.7,2.6-1.2s1.5-1.1,2-1.8c0.6-0.7,1-1.4,1.4-2.2v-6.2h-5.4c-1.6,0-3,0.1-4.3,0.4c-1.3,0.3-2.3,0.7-3.2,1.2
		c-0.9,0.5-1.5,1.2-2,2c-0.5,0.8-0.7,1.7-0.7,2.6c0,0.8,0.1,1.5,0.4,2.2c0.3,0.7,0.7,1.3,1.3,1.8c0.5,0.5,1.2,0.9,2,1.2
		C383.8,470.2,384.6,470.3,385.6,470.3z"/>
	<path class="st0" d="M422.1,465.4c0-0.6-0.1-1.1-0.3-1.7c-0.2-0.6-0.6-1.1-1.1-1.6c-0.5-0.5-1.3-1-2.3-1.4c-1-0.4-2.3-0.8-3.8-1.2
		s-3-0.7-4.2-1.1s-2.3-1-3.1-1.6c-0.8-0.6-1.5-1.4-1.9-2.2c-0.4-0.9-0.7-1.9-0.7-3c0-1,0.2-2,0.7-3c0.5-0.9,1.1-1.8,2-2.5
		c0.9-0.7,1.9-1.3,3.1-1.7c1.2-0.4,2.6-0.6,4.1-0.6c1.6,0,3.1,0.2,4.4,0.6c1.3,0.4,2.4,1,3.3,1.8c0.9,0.8,1.6,1.7,2.1,2.7
		c0.5,1,0.7,2.1,0.7,3.3h-3.1c0-0.7-0.2-1.4-0.5-2.1c-0.3-0.7-0.8-1.3-1.4-1.8c-0.6-0.5-1.4-1-2.3-1.3c-0.9-0.3-2-0.5-3.1-0.5
		c-1.2,0-2.3,0.1-3.1,0.4s-1.6,0.7-2.1,1.1c-0.5,0.5-0.9,1-1.2,1.6c-0.3,0.6-0.4,1.2-0.4,1.8c0,0.6,0.1,1.2,0.3,1.7s0.6,1,1.1,1.4
		s1.3,0.9,2.3,1.2c1,0.4,2.3,0.7,3.9,1.1c1.7,0.4,3.2,0.8,4.4,1.3c1.2,0.5,2.3,1.1,3.1,1.7c0.8,0.7,1.4,1.4,1.8,2.3
		c0.4,0.9,0.6,1.9,0.6,3c0,1.2-0.2,2.2-0.7,3.2s-1.2,1.8-2.1,2.5c-0.9,0.7-2,1.2-3.3,1.6c-1.3,0.4-2.7,0.6-4.3,0.6
		c-1.8,0-3.4-0.2-4.8-0.7s-2.5-1.1-3.5-1.9c-0.9-0.8-1.7-1.7-2.1-2.7c-0.5-1-0.7-2.1-0.7-3.2h3.1c0.1,1.1,0.4,2,0.9,2.8
		c0.5,0.7,1.1,1.3,1.9,1.8c0.7,0.4,1.6,0.8,2.5,1s1.8,0.3,2.7,0.3c1.2,0,2.2-0.1,3.1-0.4c0.9-0.3,1.7-0.7,2.3-1.1s1.1-1,1.4-1.6
		C421.9,466.7,422.1,466,422.1,465.4z"/>
	<path class="st0" d="M436.3,433.1h3.8l-6,7.3h-2.7L436.3,433.1z M434.6,472.6h-3.1v-28.3h3.1V472.6z"/>
	<path class="st0" d="M445.5,472.6h-3.1v-40.1h3.1V472.6z"/>
	<path class="st0" d="M452.8,436.1c0-0.6,0.2-1.1,0.6-1.5s0.9-0.6,1.6-0.6s1.2,0.2,1.6,0.6c0.4,0.4,0.6,0.9,0.6,1.5
		s-0.2,1.1-0.6,1.5c-0.4,0.4-0.9,0.6-1.6,0.6s-1.2-0.2-1.6-0.6C453,437.2,452.8,436.7,452.8,436.1z M456.5,472.6h-3.1v-28.3h3.1
		V472.6z"/>
	<path class="st0" d="M481.7,472.6c-0.2-0.5-0.3-1.1-0.4-1.8c-0.1-0.7-0.2-1.4-0.2-2.2c-0.5,0.6-1,1.2-1.7,1.7
		c-0.6,0.5-1.4,1-2.2,1.4c-0.8,0.4-1.7,0.7-2.6,1c-1,0.2-2,0.4-3.1,0.4c-1.4,0-2.6-0.2-3.7-0.6s-2.1-1-2.9-1.7
		c-0.8-0.7-1.4-1.6-1.8-2.5c-0.4-1-0.7-2-0.7-3.2c0-1.4,0.3-2.6,0.9-3.7c0.6-1.1,1.4-2,2.6-2.8c1.1-0.8,2.5-1.4,4.1-1.8
		c1.6-0.4,3.4-0.6,5.4-0.6h5.8v-3.2c0-2-0.6-3.6-1.9-4.8c-1.2-1.2-3.1-1.7-5.4-1.7c-1.1,0-2.1,0.1-3,0.4s-1.7,0.7-2.4,1.2
		c-0.7,0.5-1.2,1.1-1.6,1.8c-0.4,0.7-0.6,1.4-0.6,2.2l-3.1,0c0-1.1,0.3-2.1,0.8-3.1c0.5-1,1.3-1.9,2.2-2.7c0.9-0.8,2.1-1.4,3.4-1.9
		c1.3-0.5,2.8-0.7,4.4-0.7c1.5,0,2.9,0.2,4.1,0.6c1.3,0.4,2.3,1,3.3,1.7c0.9,0.8,1.6,1.7,2.1,2.9c0.5,1.1,0.8,2.5,0.8,4v13.7
		c0,0.5,0,1,0.1,1.5s0.1,1,0.2,1.5c0.1,0.5,0.2,1,0.3,1.4c0.1,0.4,0.2,0.8,0.4,1.2v0.3H481.7z M471.9,470.3c1.1,0,2.2-0.1,3.1-0.4
		c1-0.3,1.8-0.7,2.6-1.2s1.5-1.1,2-1.8c0.6-0.7,1-1.4,1.4-2.2v-6.2h-5.4c-1.6,0-3,0.1-4.3,0.4c-1.3,0.3-2.3,0.7-3.2,1.2
		c-0.9,0.5-1.5,1.2-2,2c-0.5,0.8-0.7,1.7-0.7,2.6c0,0.8,0.1,1.5,0.4,2.2c0.3,0.7,0.7,1.3,1.3,1.8c0.5,0.5,1.2,0.9,2,1.2
		C470,470.2,470.9,470.3,471.9,470.3z"/>
</g>
<g>
	<rect id="XMLID_1181_" x="64.4" y="84" class="st0" width="119.2" height="238.4"/>
	<path class="st0" d="M405,79.7c-68.2,0-123.4,55.3-123.4,123.4c0,68.2,55.3,123.4,123.4,123.4s123.4-55.3,123.4-123.4
		C528.4,135,473.1,79.7,405,79.7z M405,309.1c-58.5,0-105.9-47.4-105.9-105.9S346.5,97.2,405,97.2s105.9,47.4,105.9,105.9
		S463.5,309.1,405,309.1z"/>
	
		<rect id="XMLID_1160_" x="73.2" y="198.1" transform="matrix(0.2206 -0.9754 0.9754 0.2206 -12.4573 398.1569)" class="st0" width="339.3" height="17.6"/>
	<g>
		<path class="st0" d="M394.4,219.2h-4.3v-26.8l-6.3,2.7l-1.6-3.7l9.5-4.4h2.8V219.2z"/>
		<path class="st0" d="M414.8,198.7c2.5,0,4.8,1,6.9,3.1c2.1,2.1,3.2,4.5,3.2,7.5c0,2.9-1.1,5.4-3.3,7.5c-2.2,2.2-4.8,3.2-7.7,3.2
			c-3.2,0-5.8-1.1-7.9-3.3c-2.1-2.2-3.1-4.7-3.1-7.5c0-3,1.3-6.3,3.8-10l8.7-12.9l3.5,2.4l-7.7,10.6l0.1,0.1
			C412.1,198.9,413.2,198.7,414.8,198.7z M413.9,215.8c1.8,0,3.4-0.6,4.7-1.9c1.3-1.3,2-2.8,2-4.7c0-1.8-0.7-3.4-2-4.6
			c-1.3-1.3-2.9-1.9-4.7-1.9c-1.8,0-3.4,0.6-4.7,1.9c-1.3,1.3-2,2.8-2,4.6c0,1.9,0.7,3.4,2,4.7C410.5,215.2,412.1,215.8,413.9,215.8
			z"/>
	</g>
</g>
</svg>
