<?xml version="1.0" encoding="utf-8"?>
<!-- Generator: Adobe Illustrator 19.2.1, SVG Export Plug-In . SVG Version: 6.00 Build 0)  -->
<svg version="1.1" id="Layer_4" xmlns="http://www.w3.org/2000/svg" xmlns:xlink="http://www.w3.org/1999/xlink" x="0px" y="0px"
	 viewBox="0 0 691.4 142.7" style="enable-background:new 0 0 691.4 142.7;" xml:space="preserve">
<style type="text/css">
	.st0{fill:none;}
	.st1{fill:#FFC107;}
	.st2{fill:#0F9D58;}
	.st3{opacity:0.2;fill:#BF360C;enable-background:new    ;}
	.st4{opacity:0.2;fill:#263238;enable-background:new    ;}
	.st5{opacity:0.2;fill:#FFFFFF;enable-background:new    ;}
	.st6{fill:url(#XMLID_2_);}
	.st7{fill:url(#XMLID_3_);}
	.st8{fill:#4285F4;}
	.st9{fill:#DB4437;}
	.st10{opacity:0.2;fill:#1A237E;enable-background:new    ;}
	.st11{opacity:0.2;fill:#3E2723;enable-background:new    ;}
	.st12{fill:url(#XMLID_4_);}
	.st13{opacity:0.54;}
	.st14{fill:#757575;}
</style>
<g>
	<g>
		<g>
			<defs>
				<rect id="SVGID_1_" x="6.1" width="135.3" height="135.3"/>
			</defs>
			<clipPath id="SVGID_2_">
				<use xlink:href="#SVGID_1_"  style="overflow:visible;"/>
			</clipPath>
		</g>
	</g>
	<g id="XMLID_50_">
		<g id="XMLID_72_">
			<path class="st0" d="M100.9,63.4L77.2,22.6H45.6l26.1,45.1l-26.1,45.1h31.6l23.6-40.9C102.4,69.3,102.4,66.1,100.9,63.4z"/>
			<polygon id="XMLID_80_" class="st1" points="87.3,94.6 79.8,81.7 61.8,112.8 77.2,112.8 87.5,95 			"/>
			<path class="st0" d="M100.9,63.4L77.2,22.6H45.6l26.1,45.1l-26.1,45.1h31.6l23.6-40.9C102.4,69.3,102.4,66.1,100.9,63.4z"/>
			<polygon class="st2" points="71.7,67.7 79.8,81.7 61.8,112.8 45.6,112.8 			"/>
			<path class="st0" d="M100.9,63.4L77.2,22.6H45.6l26.1,45.1l-26.1,45.1h31.6l23.6-40.9C102.4,69.3,102.4,66.1,100.9,63.4z"/>
			<polygon class="st3" points="77.2,112.1 62.2,112.1 61.8,112.8 77.2,112.8 87.5,95 87.3,94.6 			"/>
			<path class="st0" d="M100.9,63.4L77.2,22.6H45.6l26.1,45.1l-26.1,45.1h31.6l23.6-40.9C102.4,69.3,102.4,66.1,100.9,63.4z"/>
			<polygon class="st4" points="46,112.1 45.6,112.8 61.8,112.8 62.2,112.1 			"/>
			<path class="st0" d="M100.9,63.4L77.2,22.6H45.6l26.1,45.1l-26.1,45.1h31.6l23.6-40.9C102.4,69.3,102.4,66.1,100.9,63.4z"/>
			<polygon class="st5" points="45.6,112.8 46,112.8 71.9,68 71.7,67.7 			"/>
			<path class="st0" d="M100.9,63.4L77.2,22.6H45.6l26.1,45.1l-26.1,45.1h31.6l23.6-40.9C102.4,69.3,102.4,66.1,100.9,63.4z"/>
			
				<radialGradient id="XMLID_2_" cx="87.3881" cy="143.4384" r="31.1991" gradientTransform="matrix(1 0 0 -1 0 238.1519)" gradientUnits="userSpaceOnUse">
				<stop  offset="0" style="stop-color:#BF360C;stop-opacity:0.2"/>
				<stop  offset="1" style="stop-color:#BF360C;stop-opacity:2.000000e-002"/>
			</radialGradient>
			<polygon id="XMLID_79_" class="st6" points="87.5,95 87.5,95 79.8,81.7 77.9,84.9 			"/>
			<path class="st0" d="M100.9,63.4L77.2,22.6H45.6l26.1,45.1l-26.1,45.1h31.6l23.6-40.9C102.4,69.3,102.4,66.1,100.9,63.4z"/>
			
				<radialGradient id="XMLID_3_" cx="87.2995" cy="143.2411" r="31.4524" gradientTransform="matrix(1 0 0 -1 0 238.1519)" gradientUnits="userSpaceOnUse">
				<stop  offset="0" style="stop-color:#263238;stop-opacity:0.2"/>
				<stop  offset="1" style="stop-color:#263238;stop-opacity:2.000000e-002"/>
			</radialGradient>
			<polygon id="XMLID_78_" class="st7" points="77.9,84.9 79.8,81.7 71.7,67.7 67.8,74.4 			"/>
			<path class="st0" d="M100.9,63.4L77.2,22.6H45.6l26.1,45.1l-26.1,45.1h31.6l23.6-40.9C102.4,69.3,102.4,66.1,100.9,63.4z"/>
			<g id="XMLID_75_">
				<g id="XMLID_76_">
					<polygon id="XMLID_77_" class="st8" points="61.8,22.6 45.6,22.6 87.5,95 95.6,81 95.6,81 					"/>
				</g>
			</g>
			<path class="st0" d="M100.9,63.4L77.2,22.6H45.6l26.1,45.1l-26.1,45.1h31.6l23.6-40.9C102.4,69.3,102.4,66.1,100.9,63.4z"/>
			<path class="st9" d="M100.9,71.9c1.5-2.6,1.5-5.8,0-8.5L77.2,22.6H61.8L95.6,81L100.9,71.9z"/>
			<path class="st0" d="M100.9,63.4L77.2,22.6H45.6l26.1,45.1l-26.1,45.1h31.6l23.6-40.9C102.4,69.3,102.4,66.1,100.9,63.4z"/>
			<polygon class="st10" points="95.6,81 95.4,80.6 87.5,94.3 46,22.6 45.6,22.6 87.5,95 95.6,81 			"/>
			<path class="st0" d="M100.9,63.4L77.2,22.6H45.6l26.1,45.1l-26.1,45.1h31.6l23.6-40.9C102.4,69.3,102.4,66.1,100.9,63.4z"/>
			<path class="st5" d="M77.2,23.3l23.6,40.9c0.7,1.2,1.1,2.5,1.1,3.9c0.1-1.6-0.3-3.2-1.1-4.6L77.2,22.6H45.6l0.4,0.7H77.2z"/>
			<path class="st0" d="M100.9,63.4L77.2,22.6H45.6l26.1,45.1l-26.1,45.1h31.6l23.6-40.9C102.4,69.3,102.4,66.1,100.9,63.4z"/>
			<path id="XMLID_74_" class="st11" d="M95.6,81l5.3-9.1c0.8-1.4,1.2-3,1.1-4.6c-0.1,1.3-0.4,2.7-1.1,3.9l-5.5,9.4L95.6,81z"/>
			<path class="st0" d="M100.9,63.4L77.2,22.6H45.6l26.1,45.1l-26.1,45.1h31.6l23.6-40.9C102.4,69.3,102.4,66.1,100.9,63.4z"/>
			
				<radialGradient id="XMLID_4_" cx="44.9022" cy="214.8918" r="94.6967" gradientTransform="matrix(1 0 0 -1 0 238.1519)" gradientUnits="userSpaceOnUse">
				<stop  offset="0" style="stop-color:#FFFFFF;stop-opacity:0.1"/>
				<stop  offset="1" style="stop-color:#FFFFFF;stop-opacity:0"/>
			</radialGradient>
			<path id="XMLID_73_" class="st12" d="M100.9,63.4L77.2,22.6H45.6l26.1,45.1l-26.1,45.1h31.6l23.6-40.9
				C102.4,69.3,102.4,66.1,100.9,63.4z"/>
		</g>
	</g>
</g>
<g id="XMLID_8_" class="st13">
	<path id="XMLID_104_" d="M216.5,30.4h21.6c22,0,35.8,14.6,35.8,35c0,20.5-13.8,35-35.7,35h-21.6L216.5,30.4L216.5,30.4z
		 M238.4,89.9c15.3,0,24.8-8.5,24.8-24.4c0-15.8-9.5-24.4-24.8-24.4h-11.3v48.8H238.4z"/>
	<rect id="XMLID_103_" x="135.4" y="28.6" class="st0" width="216.6" height="76.4"/>
	<path id="XMLID_102_" d="M207.6,62.3H174v10.4h23.7c-0.8,5.3-2.6,9.4-5.4,12.2c-3.5,3.5-9,7.4-18.6,7.4c-14.8,0-26.4-12-26.4-26.8
		s11.6-26.8,26.4-26.8c8,0,13.9,3.2,18.2,7.2l7.1-7.1c-6-5.8-14-10.2-25.3-10.2c-20.3,0-37.4,16.5-37.4,36.9
		c0,20.3,17.1,36.9,37.4,36.9c11,0,19.2-3.6,25.7-10.3c6.7-6.7,8.7-16,8.7-23.6C208.2,66.1,208,64.1,207.6,62.3z"/>
	<path id="XMLID_86_" d="M352,62.3h-33.6v10.4h23.7c-0.8,5.3-2.6,9.4-5.4,12.2c-3.5,3.5-9,7.4-18.6,7.4c-14.8,0-26.4-12-26.4-26.8
		s11.6-26.8,26.4-26.8c8,0,13.9,3.2,18.2,7.2l7.1-7.1c-6-5.8-14-10.2-25.3-10.2c-20.3,0-37.4,16.5-37.4,36.9
		c0,20.3,17.1,36.9,37.4,36.9c11,0,19.2-3.6,25.7-10.3c6.7-6.7,8.7-16,8.7-23.6C352.6,66.1,352.4,64.1,352,62.3z"/>
</g>
<g>
	<path class="st14" d="M387.4,101.3V35.9h21.4c3.4,0,6.3,0.3,9,1c2.6,0.7,4.9,1.7,6.7,3.1c1.8,1.4,3.2,3.2,4.2,5.4
		c1,2.2,1.5,4.8,1.5,7.9s-0.9,5.8-2.6,8.1c-1.7,2.4-4.1,4.2-7.1,5.5c1.8,0.5,3.5,1.3,4.9,2.2s2.6,2.2,3.6,3.5c1,1.3,1.7,2.9,2.2,4.5
		c0.5,1.7,0.8,3.4,0.8,5.3c0,3.1-0.5,5.8-1.5,8.1c-1,2.4-2.5,4.3-4.4,5.9c-1.9,1.6-4.2,2.8-6.8,3.6c-2.7,0.8-5.6,1.2-8.9,1.2H387.4z
		 M396,63.8h13c1.9,0,3.5-0.2,5.1-0.7c1.5-0.5,2.8-1.2,3.9-2.1c1.1-0.9,1.9-2,2.5-3.3c0.6-1.3,0.9-2.8,0.9-4.4c0-3.6-1-6.2-3.1-7.8
		c-2.1-1.6-5.3-2.4-9.6-2.4H396V63.8z M396,70.7v23.5h14.2c2.1,0,3.9-0.3,5.5-0.8c1.6-0.6,3-1.3,4.1-2.3c1.1-1,2-2.2,2.5-3.7
		c0.6-1.5,0.9-3.1,0.9-4.9c0-1.8-0.2-3.4-0.7-4.9c-0.5-1.5-1.2-2.7-2.3-3.7c-1-1-2.3-1.8-3.9-2.4c-1.6-0.6-3.5-0.8-5.7-0.8H396z"/>
	<path class="st14" d="M466.8,60.2c-0.7-0.1-1.4-0.2-2-0.2c-0.6,0-1.3-0.1-2.1-0.1c-2.9,0-5.2,0.6-7,1.9s-3.2,3-4.1,5.1v34.5h-8.3
		V52.7h8.1l0.1,5.6c1.3-2,2.8-3.6,4.7-4.8c1.9-1.2,4.2-1.8,6.9-1.8c0.6,0,1.3,0.1,2.1,0.2c0.8,0.1,1.3,0.3,1.6,0.4V60.2z"/>
	<path class="st14" d="M502.7,101.3c-0.3-0.6-0.5-1.4-0.7-2.3c-0.2-0.9-0.3-1.9-0.4-2.9c-0.8,0.8-1.7,1.6-2.6,2.3
		c-1,0.7-2,1.4-3.2,1.9c-1.2,0.6-2.4,1-3.8,1.3s-2.8,0.5-4.3,0.5c-2.5,0-4.7-0.4-6.8-1.1s-3.7-1.8-5.2-3.1c-1.4-1.3-2.5-2.8-3.3-4.6
		c-0.8-1.8-1.2-3.6-1.2-5.6c0-2.6,0.5-4.9,1.5-6.9c1-2,2.5-3.7,4.4-5c1.9-1.3,4.2-2.4,6.9-3.1c2.7-0.7,5.7-1,9-1h8.3V68
		c0-2.9-0.9-5.2-2.6-6.9c-1.7-1.7-4.3-2.6-7.7-2.6c-1.6,0-3,0.2-4.3,0.6c-1.3,0.4-2.4,1-3.3,1.7c-0.9,0.7-1.6,1.5-2.1,2.4
		c-0.5,0.9-0.8,1.9-0.8,2.9h-8.4c0-1.7,0.5-3.5,1.4-5.2s2.2-3.2,3.9-4.6c1.7-1.4,3.7-2.5,6.1-3.3c2.4-0.9,5-1.3,8-1.3
		c2.6,0,5.1,0.3,7.3,1s4.1,1.7,5.7,3.1c1.6,1.4,2.8,3.1,3.7,5.1c0.9,2,1.3,4.4,1.3,7.1v22.6c0,1.6,0.1,3.4,0.4,5.2
		c0.3,1.8,0.7,3.4,1.3,4.7v0.7H502.7z M488.9,95c1.5,0,2.9-0.2,4.2-0.6c1.3-0.4,2.5-1,3.6-1.6c1.1-0.7,2-1.4,2.8-2.3
		c0.8-0.9,1.4-1.8,1.9-2.7v-10h-6.9c-4.8,0-8.4,0.7-11,2.2c-2.6,1.5-3.9,3.7-3.9,6.7c0,1.2,0.2,2.3,0.6,3.3c0.4,1,1,1.9,1.8,2.6
		c0.8,0.7,1.8,1.3,2.9,1.8S487.4,95,488.9,95z"/>
	<path class="st14" d="M551,88.4c0-0.9-0.1-1.7-0.4-2.5c-0.3-0.8-0.8-1.5-1.6-2.2c-0.8-0.7-1.9-1.4-3.4-2c-1.5-0.6-3.4-1.2-5.8-1.7
		c-2.7-0.6-5.1-1.2-7.3-2c-2.2-0.8-4-1.7-5.5-2.8c-1.5-1.1-2.7-2.4-3.5-3.9c-0.8-1.5-1.2-3.2-1.2-5.3c0-1.9,0.4-3.7,1.3-5.5
		c0.9-1.7,2.1-3.2,3.6-4.5c1.6-1.3,3.4-2.3,5.7-3.1c2.2-0.8,4.7-1.1,7.4-1.1c2.9,0,5.5,0.4,7.8,1.2c2.3,0.8,4.2,1.9,5.8,3.3
		c1.6,1.4,2.8,3,3.7,4.8c0.8,1.8,1.3,3.8,1.3,5.9h-8.4c0-1-0.2-2-0.7-3c-0.4-1-1.1-1.9-2-2.7c-0.9-0.8-1.9-1.4-3.2-1.9
		s-2.7-0.7-4.4-0.7c-1.7,0-3.2,0.2-4.4,0.6c-1.2,0.4-2.2,0.9-3,1.6c-0.8,0.7-1.3,1.4-1.7,2.3c-0.4,0.9-0.5,1.7-0.5,2.6
		s0.1,1.7,0.4,2.4c0.3,0.7,0.9,1.4,1.7,2c0.8,0.6,2,1.1,3.4,1.6c1.5,0.5,3.3,1,5.6,1.5c3,0.7,5.5,1.5,7.7,2.3c2.2,0.9,4,1.9,5.4,3
		c1.4,1.2,2.5,2.5,3.2,4c0.7,1.5,1.1,3.2,1.1,5.2c0,2.1-0.4,4.1-1.3,5.8c-0.9,1.8-2.1,3.3-3.8,4.5c-1.6,1.3-3.6,2.2-5.9,2.9
		c-2.3,0.7-4.9,1.1-7.7,1.1c-3.2,0-6.1-0.4-8.6-1.3s-4.5-2.1-6.2-3.6c-1.7-1.5-2.9-3.2-3.8-5.1c-0.9-1.9-1.3-3.9-1.3-5.9h8.3
		c0.1,1.7,0.5,3.1,1.2,4.3c0.7,1.2,1.7,2.1,2.8,2.8c1.1,0.7,2.3,1.2,3.6,1.5c1.3,0.3,2.6,0.4,4,0.4c1.7,0,3.2-0.2,4.5-0.5
		c1.3-0.4,2.4-0.9,3.3-1.5s1.5-1.4,2-2.2S551,89.4,551,88.4z"/>
	<path class="st14" d="M579.3,32.5h10.1l-12,13.2h-6.7L579.3,32.5z M579.2,101.3h-8.4V52.7h8.4V101.3z"/>
	<path class="st14" d="M601.9,101.3h-8.3v-69h8.3V101.3z"/>
	<path class="st14" d="M615.3,39.8c0-1.3,0.4-2.5,1.2-3.4c0.8-0.9,2-1.4,3.7-1.4c1.6,0,2.8,0.5,3.7,1.4c0.8,0.9,1.3,2.1,1.3,3.4
		s-0.4,2.5-1.3,3.4c-0.8,0.9-2.1,1.3-3.7,1.3c-1.6,0-2.8-0.4-3.7-1.3C615.7,42.3,615.3,41.2,615.3,39.8z M624.2,101.3h-8.3V52.7h8.3
		V101.3z"/>
	<path class="st14" d="M667.5,101.3c-0.3-0.6-0.5-1.4-0.7-2.3c-0.2-0.9-0.3-1.9-0.4-2.9c-0.8,0.8-1.7,1.6-2.6,2.3
		c-1,0.7-2,1.4-3.2,1.9c-1.2,0.6-2.4,1-3.8,1.3s-2.8,0.5-4.3,0.5c-2.5,0-4.7-0.4-6.8-1.1s-3.7-1.8-5.2-3.1c-1.4-1.3-2.5-2.8-3.3-4.6
		c-0.8-1.8-1.2-3.6-1.2-5.6c0-2.6,0.5-4.9,1.5-6.9c1-2,2.5-3.7,4.4-5c1.9-1.3,4.2-2.4,6.9-3.1c2.7-0.7,5.7-1,9-1h8.3V68
		c0-2.9-0.9-5.2-2.6-6.9c-1.7-1.7-4.3-2.6-7.7-2.6c-1.6,0-3,0.2-4.3,0.6c-1.3,0.4-2.4,1-3.3,1.7c-0.9,0.7-1.6,1.5-2.1,2.4
		c-0.5,0.9-0.8,1.9-0.8,2.9h-8.4c0-1.7,0.5-3.5,1.4-5.2c0.9-1.7,2.2-3.2,3.9-4.6c1.7-1.4,3.7-2.5,6.1-3.3s5-1.3,8-1.3
		c2.6,0,5.1,0.3,7.3,1c2.2,0.7,4.1,1.7,5.7,3.1c1.6,1.4,2.8,3.1,3.7,5.1c0.9,2,1.3,4.4,1.3,7.1v22.6c0,1.6,0.1,3.4,0.4,5.2
		c0.3,1.8,0.7,3.4,1.3,4.7v0.7H667.5z M653.8,95c1.5,0,2.9-0.2,4.2-0.6c1.3-0.4,2.5-1,3.6-1.6s2-1.4,2.8-2.3
		c0.8-0.9,1.4-1.8,1.9-2.7v-10h-6.9c-4.8,0-8.4,0.7-11,2.2s-3.9,3.7-3.9,6.7c0,1.2,0.2,2.3,0.6,3.3c0.4,1,1,1.9,1.8,2.6
		c0.8,0.7,1.8,1.3,2.9,1.8C650.9,94.8,652.2,95,653.8,95z"/>
</g>
</svg>
