<?xml version="1.0" encoding="utf-8"?>
<!-- Generator: Adobe Illustrator 19.2.1, SVG Export Plug-In . SVG Version: 6.00 Build 0)  -->
<svg version="1.1" id="Layer_1" xmlns="http://www.w3.org/2000/svg" xmlns:xlink="http://www.w3.org/1999/xlink" x="0px" y="0px"
	 viewBox="0 0 393.6 275.4" style="enable-background:new 0 0 393.6 275.4;" xml:space="preserve">
<style type="text/css">
	.st0{fill:#5E6BB2;}
</style>
<g>
	<rect id="XMLID_1185_" x="32.4" y="50.1" class="st0" width="85" height="169.9"/>
	<path class="st0" d="M275.2,47.1c-48.6,0-88,39.4-88,88c0,48.6,39.4,88,88,88s88-39.4,88-88C363.2,86.5,323.8,47.1,275.2,47.1z
		 M275.2,210.6c-41.7,0-75.5-33.8-75.5-75.5s33.8-75.5,75.5-75.5s75.5,33.8,75.5,75.5S316.9,210.6,275.2,210.6z"/>
	
		<rect id="XMLID_1184_" x="38.7" y="131.4" transform="matrix(0.2206 -0.9754 0.9754 0.2206 -9.8988 263.0406)" class="st0" width="241.9" height="12.6"/>
	<g>
		<path class="st0" d="M267.7,146.5h-3.1v-19.1l-4.5,1.9l-1.2-2.6l6.7-3.2h2V146.5z"/>
		<path class="st0" d="M282.2,131.9c1.8,0,3.4,0.7,4.9,2.2c1.5,1.5,2.2,3.2,2.2,5.3c0,2-0.8,3.8-2.3,5.4c-1.6,1.5-3.4,2.3-5.5,2.3
			c-2.3,0-4.2-0.8-5.6-2.3c-1.5-1.6-2.2-3.3-2.2-5.3c0-2.1,0.9-4.5,2.7-7.1l6.2-9.2l2.5,1.7l-5.5,7.6l0.1,0.1
			C280.2,132.1,281.1,131.9,282.2,131.9z M281.5,144.1c1.3,0,2.4-0.4,3.3-1.3c0.9-0.9,1.4-2,1.4-3.3c0-1.3-0.5-2.4-1.4-3.3
			c-0.9-0.9-2-1.4-3.3-1.4c-1.3,0-2.4,0.5-3.4,1.4c-0.9,0.9-1.4,2-1.4,3.3c0,1.3,0.5,2.4,1.4,3.3
			C279.1,143.6,280.2,144.1,281.5,144.1z"/>
	</g>
</g>
</svg>
